<?xml version="1.0" encoding="UTF-8" standalone="no"?>
<!-- Created with Inkscape (http://www.inkscape.org/) -->

<svg
   xmlns:dc="http://purl.org/dc/elements/1.1/"
   xmlns:cc="http://creativecommons.org/ns#"
   xmlns:rdf="http://www.w3.org/1999/02/22-rdf-syntax-ns#"
   xmlns:svg="http://www.w3.org/2000/svg"
   xmlns="http://www.w3.org/2000/svg"
   xmlns:sodipodi="http://sodipodi.sourceforge.net/DTD/sodipodi-0.dtd"
   xmlns:inkscape="http://www.inkscape.org/namespaces/inkscape"
   width="10.89488mm"
   height="6.1101809mm"
   viewBox="0 0 10.89488 6.1101809"
   version="1.1"
   id="svg2979"
   sodipodi:docname="PurpleSAND_dune_soleil.svg"
   inkscape:version="0.92.4 (5da689c313, 2019-01-14)">
  <defs
     id="defs2973" />
  <sodipodi:namedview
     id="base"
     pagecolor="#ffffff"
     bordercolor="#666666"
     borderopacity="1.0"
     inkscape:pageopacity="0.0"
     inkscape:pageshadow="2"
     inkscape:zoom="0.49497475"
     inkscape:cx="129.89178"
     inkscape:cy="-368.94066"
     inkscape:document-units="mm"
     inkscape:current-layer="layer1"
     showgrid="false"
     inkscape:window-width="936"
     inkscape:window-height="1008"
     inkscape:window-x="975"
     inkscape:window-y="0"
     inkscape:window-maximized="0" />
  <metadata
     id="metadata2976">
    <rdf:RDF>
      <cc:Work
         rdf:about="">
        <dc:format>image/svg+xml</dc:format>
        <dc:type
           rdf:resource="http://purl.org/dc/dcmitype/StillImage" />
        <dc:title></dc:title>
      </cc:Work>
    </rdf:RDF>
  </metadata>
  <g
     inkscape:label="Calque 1"
     inkscape:groupmode="layer"
     id="layer1"
     transform="translate(-75.267957,-97.769077)">
    <g
       id="g1885"
       transform="translate(-59.995848,30.945528)">
      <circle
         r="3.0550904"
         cy="69.878639"
         cx="140.70918"
         id="path1390"
         style="opacity:1;fill:#f2b2a7;fill-opacity:1;stroke:none;stroke-width:5.29166651;stroke-linecap:round;stroke-linejoin:round;stroke-miterlimit:4;stroke-dasharray:none;stroke-opacity:1;paint-order:markers stroke fill" />
      <g
         transform="translate(-12.016835,-90.123698)"
         id="g1347">
        <path
           sodipodi:nodetypes="csccsccc"
           inkscape:connector-curvature="0"
           id="path1341"
           d="m 156.03935,161.23689 c 0.20638,-0.0465 1.51706,0.0211 -0.68256,-1.47043 -0.0449,-0.0305 -0.10969,-0.0611 -0.19947,-0.0593 -1.59115,0.065 -1.21279,-0.19295 -1.81919,-0.28942 -0.011,-0.001 -0.0278,-0.002 -0.0415,0.003 -0.18739,0.066 -0.31143,0.0772 -1.3367,0.31411 l 2.63231,1.90188 z"
           style="fill:#c8a7f2;fill-opacity:1;stroke:none;stroke-width:0.26458332px;stroke-linecap:butt;stroke-linejoin:miter;stroke-opacity:1" />
        <path
           sodipodi:nodetypes="ccccccccc"
           inkscape:connector-curvature="0"
           id="path1343"
           d="m 151.10228,159.30608 c 1.03455,0.65733 2.23199,0.70025 2.98007,0.99365 4.42977,1.74329 1.80497,-0.11242 1.27444,-0.53327 l 2.81873,1.5669 c -0.87063,1.70855 -5.9808,1.7104 -6.44526,1.70998 0,0 -0.19753,-1.15871 -0.21131,-1.22762 -0.0138,-0.0689 -1.01985,-1.76406 -1.01985,-1.76406 l 0.24807,-0.62018 z"
           style="fill:#f2d0a7;fill-opacity:1;stroke:none;stroke-width:0.26458332px;stroke-linecap:butt;stroke-linejoin:miter;stroke-opacity:1" />
        <path
           sodipodi:nodetypes="cccccc"
           inkscape:connector-curvature="0"
           id="path1345"
           d="m 151.10228,159.30608 c -0.43357,0.26814 -0.9522,0.39883 0.74407,1.46167 1.3558,0.85561 2.09909,1.31193 2.07227,1.85168 -0.0144,0.39458 -3.60295,0.89225 -5.88606,-0.46777 -0.5576,-0.33235 -0.77252,-0.7922 -0.75038,-1.03298 1.72658,-0.97514 3.29644,-1.94502 3.8201,-1.8126 z"
           style="fill:#c8a7f2;fill-opacity:1;stroke:none;stroke-width:0.26458332px;stroke-linecap:butt;stroke-linejoin:miter;stroke-opacity:1" />
      </g>
    </g>
  </g>
</svg>
